<svg width="33" height="32" viewBox="0 0 33 32" fill="none" xmlns="http://www.w3.org/2000/svg">
<g clip-path="url(#clip0_1476_788)">
<path d="M10.1235 0.1119C8.42107 0.19222 7.25851 0.4639 6.24219 0.86326C5.19035 1.27318 4.29883 1.82326 3.41179 2.7135C2.52475 3.60374 1.97851 4.4959 1.57147 5.54934C1.17755 6.5679 0.910666 7.73142 0.835466 9.43478C0.760266 11.1381 0.743626 11.6857 0.751946 16.0306C0.760266 20.3756 0.779466 20.9202 0.862026 22.6271C0.943306 24.3292 1.21403 25.4914 1.61339 26.5081C2.02395 27.5599 2.57339 28.4511 3.46395 29.3385C4.35451 30.2258 5.24603 30.7708 6.30203 31.1785C7.31963 31.5717 8.48347 31.8399 10.1865 31.9145C11.8895 31.989 12.4377 32.0063 16.7814 31.998C21.1251 31.9897 21.6719 31.9705 23.3785 31.8895C25.0851 31.8085 26.2412 31.5359 27.2582 31.1385C28.31 30.7269 29.2019 30.1785 30.0886 29.2876C30.9753 28.3967 31.5212 27.5039 31.9279 26.4498C32.3222 25.4322 32.59 24.2684 32.6639 22.5666C32.7385 20.8588 32.7561 20.3135 32.7478 15.9692C32.7395 11.6249 32.7199 11.0802 32.639 9.37398C32.558 7.66774 32.287 6.50902 31.8879 5.49174C31.4767 4.4399 30.9279 3.54934 30.0377 2.66134C29.1475 1.77334 28.254 1.22774 27.2003 0.82198C26.182 0.42806 25.0188 0.15958 23.3158 0.0859802C21.6127 0.0123802 21.0646 -0.00649982 16.7193 0.00182018C12.374 0.0101402 11.83 0.0287002 10.1235 0.1119ZM10.3103 29.0361C8.75035 28.9682 7.90331 28.709 7.33883 28.4921C6.59131 28.2041 6.05883 27.8559 5.49627 27.2988C4.93371 26.7417 4.58811 26.2073 4.29627 25.4613C4.07707 24.8969 3.81307 24.0508 3.74011 22.4908C3.66075 20.8047 3.64411 20.2985 3.63483 16.0268C3.62555 11.7551 3.64187 11.2495 3.71579 9.56278C3.78235 8.00406 4.04315 7.15606 4.25979 6.5919C4.54779 5.84342 4.89467 5.3119 5.45307 4.74966C6.01147 4.18742 6.54427 3.84118 7.29083 3.54934C7.85467 3.32918 8.70075 3.06742 10.2601 2.99318C11.9475 2.91318 12.4531 2.89718 16.7241 2.8879C20.9951 2.87862 21.502 2.89462 23.19 2.96886C24.7487 3.0367 25.5971 3.29494 26.1606 3.51286C26.9084 3.80086 27.4406 4.14678 28.0028 4.70614C28.5651 5.2655 28.9116 5.79638 29.2035 6.54454C29.4239 7.10678 29.6857 7.95254 29.7593 9.51286C29.8396 11.2002 29.8579 11.7061 29.8655 15.9769C29.8732 20.2476 29.8582 20.7548 29.7843 22.4409C29.7161 24.0009 29.4575 24.8482 29.2403 25.4133C28.9523 26.1605 28.6051 26.6933 28.0463 27.2553C27.4876 27.8172 26.9555 28.1634 26.2086 28.4553C25.6454 28.6751 24.7983 28.9375 23.2403 29.0117C21.5529 29.0911 21.0473 29.1077 16.7747 29.117C12.502 29.1263 11.998 29.109 10.3107 29.0361M23.3539 7.44854C23.3545 7.82831 23.4677 8.19936 23.6793 8.51476C23.8908 8.83016 24.1911 9.07575 24.5422 9.22047C24.8933 9.36518 25.2795 9.40253 25.6518 9.32777C26.0241 9.25301 26.3659 9.06952 26.634 8.80049C26.902 8.53146 27.0843 8.18899 27.1577 7.81638C27.2311 7.44377 27.1923 7.05777 27.0463 6.70719C26.9003 6.35661 26.6536 6.0572 26.3374 5.84683C26.0213 5.63646 25.6498 5.52458 25.27 5.52534C24.7609 5.52636 24.2731 5.72953 23.9137 6.09018C23.5544 6.45084 23.353 6.93944 23.3539 7.44854ZM8.53467 16.0159C8.54363 20.5535 12.2287 24.2236 16.7654 24.2149C21.302 24.2063 24.9747 20.5215 24.966 15.9839C24.9574 11.4463 21.2713 7.77526 16.734 7.78422C12.1967 7.79318 8.52603 11.4789 8.53467 16.0159ZM11.4166 16.0101C11.4145 14.9553 11.7253 13.9235 12.3096 13.0453C12.8939 12.167 13.7255 11.4818 14.6992 11.0762C15.673 10.6706 16.7452 10.5628 17.7802 10.7666C18.8151 10.9703 19.7665 11.4764 20.5138 12.2208C21.2612 12.9652 21.7711 13.9146 21.9789 14.9487C22.1867 15.9829 22.0832 17.0555 21.6815 18.0308C21.2798 19.0062 20.5978 19.8405 19.7219 20.4283C18.846 21.0161 17.8154 21.3309 16.7606 21.333C16.0602 21.3345 15.3663 21.198 14.7187 20.9313C14.071 20.6645 13.4822 20.2728 12.986 19.7786C12.4897 19.2843 12.0957 18.697 11.8264 18.0505C11.5572 17.4039 11.4179 16.7106 11.4166 16.0101Z" fill="#2A2A2B"/>
</g>
<defs>
<clipPath id="clip0_1476_788">
<rect width="32" height="32" fill="white" transform="translate(0.75)"/>
</clipPath>
</defs>
</svg>
