<svg width="33" height="28" viewBox="0 0 33 28" fill="none" xmlns="http://www.w3.org/2000/svg">
<g clip-path="url(#clip0_1476_780)">
<path d="M28.8886 7.44415C28.9079 7.72469 28.9079 8.00524 28.9079 8.28837C28.9079 16.9154 22.3531 26.865 10.3673 26.865V26.8598C6.82665 26.865 3.35955 25.8488 0.378906 23.9328C0.893745 23.9949 1.41116 24.0259 1.92987 24.0272C4.86407 24.0298 7.71439 23.0434 10.0228 21.227C7.23439 21.1739 4.78923 19.3524 3.93504 16.693C4.91181 16.8818 5.91826 16.843 6.87697 16.5805C3.83697 15.9652 1.64987 13.289 1.64987 10.1811C1.64987 10.1526 1.64987 10.1255 1.64987 10.0983C2.55568 10.6038 3.56987 10.8844 4.60729 10.9154C1.74407 8.99813 0.861487 5.18171 2.59052 2.19787C5.89891 6.27673 10.7802 8.75637 16.0202 9.01881C15.495 6.7512 16.2125 4.37498 17.9054 2.78093C20.5299 0.30905 24.6576 0.435747 27.1247 3.06406C28.5841 2.77576 29.9828 2.23924 31.2628 1.47906C30.7763 2.99037 29.7583 4.27414 28.3983 5.08992C29.6899 4.93736 30.9518 4.59089 32.1402 4.06212C31.2654 5.37563 30.1634 6.51978 28.8886 7.44415Z" fill="#2A2A2B"/>
</g>
<defs>
<clipPath id="clip0_1476_780">
<rect width="32" height="26.3736" fill="white" transform="translate(0.25 0.813477)"/>
</clipPath>
</defs>
</svg>
