<svg width="33" height="24" viewBox="0 0 33 24" fill="none" xmlns="http://www.w3.org/2000/svg">
<g clip-path="url(#clip0_1476_783)">
<path d="M31.8313 4.27378C31.4633 2.89272 30.3791 1.80519 29.0022 1.4361C26.5067 0.765314 16.5 0.765314 16.5 0.765314C16.5 0.765314 6.49333 0.765314 3.9978 1.4361C2.62102 1.80519 1.53665 2.89272 1.16868 4.27378C0.5 6.77685 0.5 11.9994 0.5 11.9994C0.5 11.9994 0.5 17.2218 1.16868 19.7251C1.53665 21.106 2.62102 22.1935 3.9978 22.5628C6.49333 23.2334 16.5 23.2334 16.5 23.2334C16.5 23.2334 26.5067 23.2334 29.0022 22.5628C30.3791 22.1935 31.4633 21.106 31.8313 19.7251C32.5 17.2218 32.5 11.9994 32.5 11.9994C32.5 11.9994 32.5 6.77685 31.8313 4.27378Z" fill="#2A2A2B"/>
<path d="M13.2271 16.7412L21.5907 11.9998L13.2271 7.25796V16.7412Z" fill="#000001"/>
</g>
<defs>
<clipPath id="clip0_1476_783">
<rect width="32" height="22.4681" fill="white" transform="translate(0.5 0.765625)"/>
</clipPath>
</defs>
</svg>
