<svg width="22" height="16" viewBox="0 0 22 16" fill="none" xmlns="http://www.w3.org/2000/svg">
<path d="M13 5.9V4.2C13.55 3.96667 14.1127 3.79167 14.688 3.675C15.2627 3.55833 15.8667 3.5 16.5 3.5C16.9333 3.5 17.3583 3.53333 17.775 3.6C18.1917 3.66667 18.6 3.75 19 3.85V5.45C18.6 5.3 18.196 5.18767 17.788 5.113C17.3793 5.03767 16.95 5 16.5 5C15.8667 5 15.2583 5.07933 14.675 5.238C14.0917 5.396 13.5333 5.61667 13 5.9ZM13 11.4V9.7C13.55 9.46667 14.1127 9.29167 14.688 9.175C15.2627 9.05833 15.8667 9 16.5 9C16.9333 9 17.3583 9.03333 17.775 9.1C18.1917 9.16667 18.6 9.25 19 9.35V10.95C18.6 10.8 18.196 10.6877 17.788 10.613C17.3793 10.5377 16.95 10.5 16.5 10.5C15.8667 10.5 15.2583 10.575 14.675 10.725C14.0917 10.875 13.5333 11.1 13 11.4ZM13 8.65V6.95C13.55 6.71667 14.1127 6.54167 14.688 6.425C15.2627 6.30833 15.8667 6.25 16.5 6.25C16.9333 6.25 17.3583 6.28333 17.775 6.35C18.1917 6.41667 18.6 6.5 19 6.6V8.2C18.6 8.05 18.196 7.93767 17.788 7.863C17.3793 7.78767 16.95 7.75 16.5 7.75C15.8667 7.75 15.2583 7.82933 14.675 7.988C14.0917 8.146 13.5333 8.36667 13 8.65ZM5.5 12C6.28333 12 7.046 12.0873 7.788 12.262C8.52933 12.4373 9.26667 12.7 10 13.05V3.2C9.31667 2.8 8.59167 2.5 7.825 2.3C7.05833 2.1 6.28333 2 5.5 2C4.9 2 4.30433 2.05833 3.713 2.175C3.121 2.29167 2.55 2.46667 2 2.7V12.6C2.58333 12.4 3.16267 12.25 3.738 12.15C4.31267 12.05 4.9 12 5.5 12ZM12 13.05C12.7333 12.7 13.471 12.4373 14.213 12.262C14.9543 12.0873 15.7167 12 16.5 12C17.1 12 17.6877 12.05 18.263 12.15C18.8377 12.25 19.4167 12.4 20 12.6V2.7C19.45 2.46667 18.8793 2.29167 18.288 2.175C17.696 2.05833 17.1 2 16.5 2C15.7167 2 14.9417 2.1 14.175 2.3C13.4083 2.5 12.6833 2.8 12 3.2V13.05ZM11 16C10.2 15.3667 9.33333 14.875 8.4 14.525C7.46667 14.175 6.5 14 5.5 14C4.8 14 4.11267 14.0917 3.438 14.275C2.76267 14.4583 2.11667 14.7167 1.5 15.05C1.15 15.2333 0.812667 15.225 0.488 15.025C0.162667 14.825 0 14.5333 0 14.15V2.1C0 1.91667 0.046 1.74167 0.138 1.575C0.229333 1.40833 0.366667 1.28333 0.55 1.2C1.31667 0.8 2.11667 0.5 2.95 0.3C3.78333 0.1 4.63333 0 5.5 0C6.46667 0 7.41267 0.125 8.338 0.375C9.26267 0.625 10.15 1 11 1.5C11.85 1 12.7377 0.625 13.663 0.375C14.5877 0.125 15.5333 0 16.5 0C17.3667 0 18.2167 0.1 19.05 0.3C19.8833 0.5 20.6833 0.8 21.45 1.2C21.6333 1.28333 21.771 1.40833 21.863 1.575C21.9543 1.74167 22 1.91667 22 2.1V14.15C22 14.5333 21.8377 14.825 21.513 15.025C21.1877 15.225 20.85 15.2333 20.5 15.05C19.8833 14.7167 19.2373 14.4583 18.562 14.275C17.8873 14.0917 17.2 14 16.5 14C15.5 14 14.5333 14.175 13.6 14.525C12.6667 14.875 11.8 15.3667 11 16Z" fill="#A1A1A1"/>
</svg>
